<?xml version="1.0" encoding="UTF-8" standalone="no"?>
<!-- Created with Inkscape (http://www.inkscape.org/) -->

<svg
   xmlns:dc="http://purl.org/dc/elements/1.1/"
   xmlns:cc="http://creativecommons.org/ns#"
   xmlns:rdf="http://www.w3.org/1999/02/22-rdf-syntax-ns#"
   xmlns:svg="http://www.w3.org/2000/svg"
   xmlns="http://www.w3.org/2000/svg"
   xmlns:sodipodi="http://sodipodi.sourceforge.net/DTD/sodipodi-0.dtd"
   xmlns:inkscape="http://www.inkscape.org/namespaces/inkscape"
   width="1024"
   height="500"
   viewBox="0 0 270.93333 132.29167"
   id="svg2"
   version="1.1"
   inkscape:version="0.91+devel+osxmenu r12922"
   sodipodi:docname="header.svg"
   inkscape:export-filename="/Users/hideki/src/github.com/shrhdk/theta-pluin-web-ui-browser/image/header.png"
   inkscape:export-xdpi="96"
   inkscape:export-ydpi="96">
  <defs
     id="defs4" />
  <sodipodi:namedview
     id="base"
     pagecolor="#ffffff"
     bordercolor="#666666"
     borderopacity="1.0"
     inkscape:pageopacity="0.0"
     inkscape:pageshadow="2"
     inkscape:zoom="0.7"
     inkscape:cx="738.81492"
     inkscape:cy="45.001007"
     inkscape:document-units="px"
     inkscape:current-layer="layer1"
     showgrid="false"
     units="px"
     inkscape:snap-page="true"
     inkscape:snap-global="false"
     inkscape:window-width="1920"
     inkscape:window-height="1105"
     inkscape:window-x="0"
     inkscape:window-y="23"
     inkscape:window-maximized="0" />
  <metadata
     id="metadata7">
    <rdf:RDF>
      <cc:Work
         rdf:about="">
        <dc:format>image/svg+xml</dc:format>
        <dc:type
           rdf:resource="http://purl.org/dc/dcmitype/StillImage" />
        <dc:title></dc:title>
      </cc:Work>
    </rdf:RDF>
  </metadata>
  <g
     inkscape:label="Layer 1"
     inkscape:groupmode="layer"
     id="layer1"
     transform="translate(0,-164.70833)">
    <rect
       style="fill:#6792d5;fill-opacity:1;stroke:none;stroke-width:1.32291675;stroke-linecap:round;stroke-linejoin:round;stroke-miterlimit:4;stroke-dasharray:none;stroke-dashoffset:0;stroke-opacity:1"
       id="rect4710"
       width="270.93335"
       height="132.29167"
       x="0"
       y="164.70833" />
    <circle
       style="fill:none;fill-opacity:1;stroke:#d5e5ff;stroke-width:2.11666668;stroke-linecap:round;stroke-linejoin:round;stroke-miterlimit:4;stroke-dasharray:none;stroke-dashoffset:0;stroke-opacity:1"
       id="path4731"
       cx="135.46667"
       cy="219.75911"
       r="24.85607" />
    <path
       style="fill:none;fill-opacity:1;stroke:#d5e5ff;stroke-width:2.11666668;stroke-linecap:round;stroke-linejoin:round;stroke-miterlimit:4;stroke-dasharray:none;stroke-dashoffset:0;stroke-opacity:1"
       d="m 132.23892,203.66613 c -2.34865,0 -4.23944,2.14864 -4.23944,4.81754 l 0,25.27131 c 0,2.22156 1.89079,2.09233 4.23944,2.09233 l 6.45551,0 c 2.34864,0 4.23943,0.09 4.23943,-2.09233 l 0,-25.27131 c 0,-2.6689 -1.89079,-4.81754 -4.23943,-4.81754 z m 3.22775,4.30794 c 1.95759,3e-5 3.54446,1.58706 3.54428,3.54465 -3e-5,1.95744 -1.58684,3.54426 -3.54428,3.54429 -1.95744,-3e-5 -3.54425,-1.58685 -3.54428,-3.54429 -1.8e-4,-1.95759 1.58669,-3.54462 3.54428,-3.54465 z"
       id="rect4141"
       inkscape:connector-curvature="0"
       sodipodi:nodetypes="sssssssssccccc" />
    <path
       style="fill:#d5e5ff;fill-opacity:1;stroke:none;stroke-width:0.51597774;stroke-linecap:round;stroke-linejoin:round;stroke-miterlimit:4;stroke-dasharray:none;stroke-dashoffset:0;stroke-opacity:1"
       d="m 140.90129,226.0971 c -0.31947,-0.74104 -0.44113,-1.58666 -0.0208,-3.11684 -1.43293,0.37131 -2.44591,0.69812 -3.07989,0.21217 -0.35175,-0.2695 0.17177,-1.27327 0.15179,-1.66957 -0.0201,-0.39631 -0.48579,-1.27563 -1.27236,-1.28835 -0.78653,-0.0128 -1.49575,0.65046 -1.50272,1.18398 -0.007,0.53352 0.53998,0.96449 0.25192,1.31835 -0.62705,0.77025 -1.75245,0.47189 -3.0739,0.23269 -0.14906,0.31886 1.21853,2.21345 0.39715,2.93081 -0.30243,0.26413 -1.73215,-0.52827 -2.44748,-0.15382 -0.45389,0.23761 -0.76287,0.80633 -0.73699,1.29634 0.0224,0.42469 0.37315,0.83178 0.75409,1.05771 0.66856,0.39621 1.83214,-0.25001 2.3429,0.31867 0.72063,0.8024 -0.0662,3.15754 -0.0662,3.15754 0,0 2.05314,-0.26155 3.04871,0.04 0.43368,0.13144 -0.28811,-0.87282 -0.26097,-1.4551 0.0186,-0.40566 0.59452,-0.99588 1.19858,-0.98622 0.82091,0.013 1.29212,0.95918 1.24919,1.35693 -0.0571,0.5294 -0.71954,1.09936 -0.2767,1.11549 0.90199,0.0329 2.60491,0.0307 3.55091,0.0577 -0.73694,-1.22801 0.25019,-3.36354 0.0511,-3.5611 -0.34099,-0.33839 -0.81434,0.006 -1.48271,-0.0225 -0.66838,-0.0288 -1.15864,-0.48351 -1.18791,-0.97958 -0.0312,-0.52816 0.39226,-1.11661 1.13424,-1.16954 0.74197,-0.0529 1.27798,0.12414 1.27798,0.12414 z"
       id="rect4210"
       inkscape:connector-curvature="0"
       sodipodi:nodetypes="ccszzzacsaaaacssssscszazc" />
    <text
       xml:space="preserve"
       style="font-style:normal;font-variant:normal;font-weight:bold;font-stretch:normal;font-size:16.93333435px;line-height:125%;font-family:'Noto Sans CJK JP';-inkscape-font-specification:'Noto Sans CJK JP Bold';text-align:center;letter-spacing:0px;word-spacing:0px;writing-mode:lr-tb;text-anchor:middle;fill:#f2f2f2;fill-opacity:1;stroke:none;stroke-width:0.26458335px;stroke-linecap:butt;stroke-linejoin:miter;stroke-opacity:1;"
       x="135.54393"
       y="270.16577"
       id="text4723"
       sodipodi:linespacing="125%"><tspan
         sodipodi:role="line"
         x="135.54393"
         y="270.16577"
         style="font-style:normal;font-variant:normal;font-weight:bold;font-stretch:normal;font-size:16.93333435px;font-family:'Noto Sans CJK JP';-inkscape-font-specification:'Noto Sans CJK JP Bold';text-align:center;writing-mode:lr-tb;text-anchor:middle;fill:#f2f2f2;stroke-width:0.26458335px;"
         id="tspan4727">Web UI Browser for THETA</tspan></text>
  </g>
</svg>
