<?xml version="1.0" encoding="UTF-8" standalone="no"?>
<!-- Created with Inkscape (http://www.inkscape.org/) -->
<svg xmlns:rdf="http://www.w3.org/1999/02/22-rdf-syntax-ns#" xmlns="http://www.w3.org/2000/svg" height="192" width="192" version="1.1" xmlns:cc="http://creativecommons.org/ns#" xmlns:dc="http://purl.org/dc/elements/1.1/" viewBox="0 0 50 50">
 <path stroke-linejoin="round" d="m22.172 9.31c-2.3486 0-4.2394 2.1486-4.2394 4.8175v25.271c0 2.2216 1.8908 2.0923 4.2394 2.0923h6.4555c2.3486 0 4.2394 0.09 4.2394-2.0923v-25.271c0-2.6689-1.8908-4.8175-4.2394-4.8175zm3.2278 4.3079c1.9576 0.00003 3.5445 1.5871 3.5443 3.5446-0.00003 1.9574-1.5868 3.5443-3.5443 3.5443-1.9574-0.00003-3.5442-1.5868-3.5443-3.5443-0.000178-1.9576 1.5867-3.5446 3.5443-3.5446z" stroke="#d5e5ff" stroke-linecap="round" stroke-width="1.3229" fill="none"/>
 <path d="m30.835 31.74c-0.31947-0.74104-0.44113-1.5867-0.02077-3.1168-1.4329 0.37131-2.4459 0.69812-3.0799 0.21217-0.35175-0.2695 0.17176-1.2733 0.15178-1.6696-0.02009-0.39631-0.48579-1.2756-1.2724-1.2884-0.78653-0.0128-1.4958 0.65046-1.5027 1.184-0.0072 0.53352 0.53998 0.96449 0.25193 1.3184-0.62706 0.77025-1.7525 0.47189-3.0739 0.23269-0.14906 0.31886 1.2185 2.2134 0.39716 2.9308-0.30243 0.26413-1.7322-0.52827-2.4475-0.15382-0.45389 0.23761-0.76287 0.80633-0.73699 1.2963 0.02244 0.42469 0.37316 0.83178 0.75409 1.0577 0.66856 0.39621 1.8321-0.25001 2.3429 0.31867 0.72062 0.8024-0.06621 3.1575-0.06621 3.1575s2.0531-0.26155 3.0487 0.04c0.43368 0.13144-0.28811-0.87282-0.26096-1.4551 0.01861-0.40566 0.59452-0.99588 1.1986-0.98622 0.82091 0.013 1.2921 0.95918 1.2492 1.3569-0.05712 0.5294-0.71954 1.0994-0.2767 1.1155 0.90199 0.0329 2.6049 0.0307 3.5509 0.0577-0.73694-1.228 0.2502-3.3635 0.05114-3.5611-0.34099-0.33839-0.81433 0.006-1.4827-0.0225-0.66838-0.0288-1.1586-0.48351-1.1879-0.97958-0.03116-0.52816 0.39226-1.1166 1.1342-1.1695 0.74197-0.0529 1.278 0.12414 1.278 0.12414z" fill="#d5e5ff"/>
</svg>
